<?xml version="1.0" standalone="no"?>
<!DOCTYPE svg PUBLIC "-//W3C//DTD SVG 20010904//EN"
 "http://www.w3.org/TR/2001/REC-SVG-20010904/DTD/svg10.dtd">
<svg version="1.0" xmlns="http://www.w3.org/2000/svg"
 width="500.000000pt" height="500.000000pt" viewBox="0 0 500.000000 500.000000"
 preserveAspectRatio="xMidYMid meet">
<metadata>
Created by potrace 1.16, written by Peter Selinger 2001-2019
</metadata>
<g transform="translate(0.000000,500.000000) scale(0.100000,-0.100000)"
fill="#000000" stroke="none">
<path d="M0 2500 l0 -2500 2500 0 2500 0 0 2500 0 2500 -2500 0 -2500 0 0
-2500z m2601 1487 c22 -14 39 -38 49 -64 13 -38 12 -46 -3 -78 -20 -41 -70
-75 -112 -75 -61 0 -125 63 -125 123 0 31 39 88 70 104 38 19 83 15 121 -10z
m84 -381 c202 -54 319 -223 301 -436 -17 -200 -147 -364 -318 -402 l-59 -13
117 -130 c573 -634 742 -800 905 -889 75 -41 199 -76 271 -76 65 0 61 -16 -9
-30 -84 -18 -253 -8 -328 19 -148 53 -304 165 -439 315 -40 44 -178 198 -306
341 -128 143 -255 283 -283 312 l-50 51 -43 -40 c-47 -44 -102 -73 -159 -84
-45 -8 -45 -29 -2 -76 17 -19 66 -73 107 -119 41 -46 79 -89 85 -95 5 -6 53
-57 105 -114 264 -289 471 -486 570 -543 86 -50 175 -77 251 -77 87 0 82 -14
-11 -30 -166 -28 -370 36 -510 160 -14 12 -44 38 -68 58 -24 19 -75 72 -114
116 -83 95 -200 224 -279 310 -31 34 -78 86 -104 116 -27 30 -53 57 -58 59 -5
2 -8 -29 -6 -77 3 -62 9 -87 25 -108 31 -43 67 -65 112 -71 23 -3 42 -10 42
-14 0 -5 -112 -9 -250 -9 -233 0 -306 8 -209 24 23 4 55 16 71 27 52 38 58 62
58 246 l0 168 -37 32 c-21 18 -49 41 -63 52 l-25 20 63 1 62 0 0 335 0 335
-100 0 -100 0 0 -635 c0 -559 2 -639 16 -675 19 -46 66 -80 113 -80 17 0 31
-4 31 -10 0 -6 -82 -10 -225 -10 -124 0 -225 4 -225 9 0 4 21 11 46 14 34 3
55 13 78 36 l31 31 0 646 0 646 -37 34 c-28 25 -47 34 -73 34 -19 0 -35 5 -35
10 0 7 79 10 240 8 l240 -3 0 85 c0 67 -4 92 -20 118 -25 41 -76 72 -117 72
-18 0 -33 5 -33 10 0 16 693 13 755 -4z m-505 -2378 c23 -57 47 -109 52 -115
8 -10 4 -13 -16 -13 -16 0 -26 5 -25 13 1 6 -1 24 -5 40 -7 25 -12 27 -56 27
-45 0 -49 -2 -59 -31 -6 -17 -8 -35 -5 -40 3 -5 -7 -9 -22 -9 -25 0 -26 1 -12
18 8 9 30 53 48 97 34 85 49 115 54 115 2 0 23 -46 46 -102z m438 66 c56 -22
80 -75 58 -128 -19 -47 -52 -66 -109 -66 -42 0 -53 5 -78 31 -51 55 -34 135
35 165 40 17 48 17 94 -2z m986 2 c43 -18 66 -51 66 -97 0 -70 -64 -115 -140
-98 -98 22 -109 154 -16 195 40 17 49 17 90 0z m-1714 -13 c38 -26 49 -45 50
-80 0 -47 -18 -80 -55 -98 -41 -19 -46 -19 -89 1 -38 19 -56 50 -56 97 1 49
50 97 100 97 14 0 37 -8 50 -17z m504 1 c19 -18 20 -28 6 -54 -8 -15 -6 -24
10 -40 44 -44 8 -90 -72 -90 l-53 0 0 100 0 100 47 0 c29 0 52 -6 62 -16z
m987 -13 c38 -39 40 -97 5 -138 -22 -26 -31 -28 -108 -31 -68 -3 -81 -2 -70 9
7 8 12 43 12 95 0 57 -4 84 -12 87 -7 3 22 6 65 6 74 1 80 -1 108 -28z"/>
<path d="M2250 3437 l0 -115 38 -7 c102 -19 209 -101 260 -199 23 -45 26 -63
27 -153 0 -115 4 -120 68 -87 98 51 150 127 167 245 25 170 -31 324 -144 397
-40 26 -45 27 -228 30 l-188 4 0 -115z"/>
<path d="M2250 2940 c0 -170 2 -310 5 -310 29 0 145 104 145 130 0 6 -16 20
-35 31 -19 12 -35 25 -35 29 0 5 21 10 48 12 l47 3 0 105 c-1 113 -14 162 -62
233 -25 36 -79 77 -102 77 -8 0 -11 -86 -11 -310z"/>
<path d="M2550 1292 c-38 -12 -60 -45 -60 -92 0 -59 29 -90 84 -90 101 0 119
151 21 178 -17 5 -37 7 -45 4z"/>
<path d="M3508 1276 c-10 -7 -22 -26 -28 -41 -36 -95 80 -171 144 -94 15 17
26 43 26 59 0 16 -11 42 -26 59 -20 24 -34 31 -62 31 -21 0 -45 -6 -54 -14z"/>
<path d="M3240 1200 l0 -90 38 0 c58 0 82 10 97 41 22 42 18 82 -10 113 -20
21 -33 26 -75 26 l-50 0 0 -90z"/>
</g>
</svg>
